# Blender v2.78 (sub 0) OBJ File: ''
# www.blender.org
mtllib CONE.mtl
o Cone
v 0.000000 -1.000000 -1.000000
v 0.195090 -1.000000 -0.980785
v 0.382683 -1.000000 -0.923880
v 0.555570 -1.000000 -0.831470
v 0.707107 -1.000000 -0.707107
v 0.831470 -1.000000 -0.555570
v 0.923880 -1.000000 -0.382683
v 0.980785 -1.000000 -0.195090
v 1.000000 -1.000000 -0.000000
v 0.000000 1.000000 0.000000
v 0.980785 -1.000000 0.195090
v 0.923880 -1.000000 0.382683
v 0.831470 -1.000000 0.555570
v 0.707107 -1.000000 0.707107
v 0.555570 -1.000000 0.831470
v 0.382683 -1.000000 0.923880
v 0.195090 -1.000000 0.980785
v -0.000000 -1.000000 1.000000
v -0.195091 -1.000000 0.980785
v -0.382684 -1.000000 0.923879
v -0.555571 -1.000000 0.831469
v -0.707107 -1.000000 0.707106
v -0.831470 -1.000000 0.555570
v -0.923880 -1.000000 0.382683
v -0.980785 -1.000000 0.195089
v -1.000000 -1.000000 -0.000001
v -0.980785 -1.000000 -0.195091
v -0.923879 -1.000000 -0.382684
v -0.831469 -1.000000 -0.555571
v -0.707106 -1.000000 -0.707108
v -0.555569 -1.000000 -0.831470
v -0.382682 -1.000000 -0.923880
v -0.195089 -1.000000 -0.980786
vt 0.0549 0.8871
vt 0.2860 0.4477
vt 0.0901 0.9064
vt 0.1286 0.9227
vt 0.1690 0.9353
vt 0.2097 0.9437
vt 0.2492 0.9477
vt 0.2860 0.9470
vt 1.0000 0.0006
vt 1.0000 0.5000
vt 0.9632 0.0000
vt 0.9237 0.0040
vt 0.8830 0.0124
vt 0.8426 0.0250
vt 0.8041 0.0413
vt 0.7690 0.0606
vt 0.7385 0.0822
vt 0.7140 0.1053
vt 0.4280 0.3947
vt 0.7140 0.0000
vt 0.4525 0.4178
vt 0.4830 0.4394
vt 0.5181 0.4587
vt 0.5566 0.4750
vt 0.5970 0.4876
vt 0.6377 0.4960
vt 0.6772 0.5000
vt 0.7140 0.4994
vt 0.4280 0.8947
vt 0.7140 0.5000
vt 0.4525 0.9178
vt 0.4830 0.9394
vt 0.5181 0.9587
vt 0.5566 0.9750
vt 0.5970 0.9876
vt 0.6377 0.9960
vt 0.6772 1.0000
vt 0.7140 0.9994
vt 0.0000 0.8424
vt 0.0245 0.8655
vt 0.3504 0.0500
vt 0.3802 0.3665
vt 0.0478 0.0812
vt 0.0776 0.3977
vt 0.0478 0.3665
vt 0.0244 0.3299
vt 0.0082 0.2891
vt 0.0000 0.2459
vt 0.0000 0.2018
vt 0.0082 0.1586
vt 0.0244 0.1178
vt 0.0776 0.0500
vt 0.1126 0.0255
vt 0.1516 0.0086
vt 0.1929 0.0000
vt 0.2351 0.0000
vt 0.2764 0.0086
vt 0.3154 0.0255
vt 0.3802 0.0812
vt 0.4037 0.1178
vt 0.4198 0.1586
vt 0.4280 0.2018
vt 0.4280 0.2459
vt 0.4198 0.2891
vt 0.4037 0.3299
vt 0.3504 0.3977
vt 0.3154 0.4222
vt 0.2764 0.4391
vt 0.2351 0.4477
vt 0.1929 0.4477
vt 0.1516 0.4391
vt 0.1126 0.4222
vn 0.0878 0.4455 -0.8910
vn 0.2599 0.4455 -0.8567
vn 0.4220 0.4455 -0.7896
vn 0.5680 0.4455 -0.6921
vn 0.6921 0.4455 -0.5680
vn 0.7896 0.4455 -0.4220
vn 0.8567 0.4455 -0.2599
vn 0.8910 0.4455 -0.0878
vn 0.8910 0.4455 0.0878
vn 0.8567 0.4455 0.2599
vn 0.7896 0.4455 0.4220
vn 0.6921 0.4455 0.5680
vn 0.5680 0.4455 0.6921
vn 0.4220 0.4455 0.7896
vn 0.2599 0.4455 0.8567
vn 0.0878 0.4455 0.8910
vn -0.0878 0.4455 0.8910
vn -0.2599 0.4455 0.8567
vn -0.4220 0.4455 0.7896
vn -0.5680 0.4455 0.6921
vn -0.6921 0.4455 0.5680
vn -0.7896 0.4455 0.4220
vn -0.8567 0.4455 0.2599
vn -0.8910 0.4455 0.0878
vn -0.8910 0.4455 -0.0878
vn -0.8567 0.4455 -0.2599
vn -0.7896 0.4455 -0.4220
vn -0.6921 0.4455 -0.5680
vn -0.5680 0.4455 -0.6921
vn -0.4220 0.4455 -0.7896
vn -0.2599 0.4455 -0.8567
vn -0.0878 0.4455 -0.8910
vn 0.0000 -1.0000 0.0000
usemtl None
s off
f 1/1/1 10/2/1 2/3/1
f 2/3/2 10/2/2 3/4/2
f 3/4/3 10/2/3 4/5/3
f 4/5/4 10/2/4 5/6/4
f 5/6/5 10/2/5 6/7/5
f 6/7/6 10/2/6 7/8/6
f 7/9/7 10/10/7 8/11/7
f 8/11/8 10/10/8 9/12/8
f 9/12/9 10/10/9 11/13/9
f 11/13/10 10/10/10 12/14/10
f 12/14/11 10/10/11 13/15/11
f 13/15/12 10/10/12 14/16/12
f 14/16/13 10/10/13 15/17/13
f 15/17/14 10/10/14 16/18/14
f 16/19/15 10/20/15 17/21/15
f 17/21/16 10/20/16 18/22/16
f 18/22/17 10/20/17 19/23/17
f 19/23/18 10/20/18 20/24/18
f 20/24/19 10/20/19 21/25/19
f 21/25/20 10/20/20 22/26/20
f 22/26/21 10/20/21 23/27/21
f 23/27/22 10/20/22 24/28/22
f 24/29/23 10/30/23 25/31/23
f 25/31/24 10/30/24 26/32/24
f 26/32/25 10/30/25 27/33/25
f 27/33/26 10/30/26 28/34/26
f 28/34/27 10/30/27 29/35/27
f 29/35/28 10/30/28 30/36/28
f 30/36/29 10/30/29 31/37/29
f 31/37/30 10/30/30 32/38/30
f 32/39/31 10/2/31 33/40/31
f 33/40/32 10/2/32 1/1/32
f 17/41/33 25/42/33 8/43/33
f 33/44/33 1/45/33 2/46/33
f 2/46/33 3/47/33 4/48/33
f 4/48/33 5/49/33 6/50/33
f 6/50/33 7/51/33 4/48/33
f 8/43/33 9/52/33 11/53/33
f 11/53/33 12/54/33 8/43/33
f 13/55/33 14/56/33 17/41/33
f 15/57/33 16/58/33 17/41/33
f 17/41/33 18/59/33 19/60/33
f 19/60/33 20/61/33 21/62/33
f 21/62/33 22/63/33 23/64/33
f 23/64/33 24/65/33 25/42/33
f 25/42/33 26/66/33 27/67/33
f 27/67/33 28/68/33 29/69/33
f 29/69/33 30/70/33 33/44/33
f 31/71/33 32/72/33 33/44/33
f 33/44/33 2/46/33 8/43/33
f 4/48/33 7/51/33 8/43/33
f 8/43/33 12/54/33 13/55/33
f 14/56/33 15/57/33 17/41/33
f 17/41/33 19/60/33 25/42/33
f 21/62/33 23/64/33 25/42/33
f 25/42/33 27/67/33 33/44/33
f 30/70/33 31/71/33 33/44/33
f 2/46/33 4/48/33 8/43/33
f 8/43/33 13/55/33 17/41/33
f 19/60/33 21/62/33 25/42/33
f 27/67/33 29/69/33 33/44/33
f 33/44/33 8/43/33 25/42/33
